<?xml version="1.0" encoding="UTF-8" ?>
<!DOCTYPE svg PUBLIC "-//W3C//DTD SVG 1.1//EN" "http://www.w3.org/Graphics/SVG/1.1/DTD/svg11.dtd">
<svg width="1032pt" height="794pt" viewBox="0 0 1032 794" version="1.1" xmlns="http://www.w3.org/2000/svg">
<g id="#fefefeff">
<path fill="#fefefeff" opacity="1.00" d=" M 526.24 114.32 C 579.83 113.31 633.39 115.74 686.96 116.62 C 737.17 118.03 787.55 117.34 837.57 122.63 C 846.42 124.34 856.56 124.95 863.29 131.68 C 866.67 135.99 870.09 141.96 867.42 147.46 C 865.26 151.63 861.75 155.20 857.76 157.63 C 837.10 163.67 815.31 162.91 794.02 162.84 C 716.34 161.81 638.68 158.04 560.99 159.10 C 459.64 159.64 358.29 159.56 256.95 160.61 C 223.97 161.25 191.05 165.08 158.04 163.70 C 150.67 163.58 142.75 162.91 136.56 158.51 C 131.71 155.03 130.84 148.50 131.10 142.97 C 131.21 137.75 134.05 132.09 139.32 130.48 C 157.94 124.66 177.60 124.02 196.91 122.58 C 235.23 120.12 273.63 119.16 312.02 118.87 C 383.45 118.72 454.83 115.53 526.24 114.32 Z" />
<path fill="#fefefeff" opacity="1.00" d=" M 714.30 182.36 C 723.29 179.73 732.73 180.57 741.97 180.34 C 753.36 180.19 763.65 186.72 771.57 194.41 C 783.38 207.70 792.72 224.01 794.70 241.94 C 796.69 262.54 798.84 283.28 797.24 304.00 C 796.81 311.99 789.54 318.00 782.00 319.22 C 772.10 321.21 760.04 316.49 756.74 306.35 C 750.71 285.63 754.80 263.55 749.35 242.73 C 747.33 234.96 743.57 227.64 738.29 221.58 C 735.35 221.93 732.42 222.27 729.49 222.57 C 720.79 241.59 716.59 262.32 714.24 283.01 C 712.00 304.59 710.83 326.30 711.20 348.01 C 711.07 362.90 711.63 377.81 713.45 392.61 C 730.89 394.42 748.84 393.94 765.69 399.38 C 777.33 406.34 777.49 425.81 766.31 433.34 C 764.74 434.41 762.97 435.23 761.09 435.48 C 744.77 437.92 728.25 436.41 711.88 435.47 C 712.32 484.64 712.86 533.85 711.07 583.00 C 710.55 588.97 711.09 595.06 709.58 600.92 C 708.04 607.17 705.56 613.14 703.42 619.20 C 697.48 618.95 691.43 619.98 685.59 618.59 C 682.18 617.81 679.15 615.31 678.21 611.88 C 673.71 597.05 673.15 581.40 673.09 566.01 C 672.40 545.69 672.95 525.36 672.65 505.04 C 672.37 475.35 672.51 445.66 671.85 415.99 C 671.74 373.66 671.28 331.33 671.77 289.00 C 673.81 256.16 679.04 221.84 698.13 194.17 C 701.64 188.22 707.67 184.09 714.30 182.36 Z" />
<path fill="#fefefeff" opacity="1.00" d=" M 272.18 202.11 C 278.72 200.48 285.52 200.02 292.13 198.67 C 299.25 201.11 305.67 206.58 307.64 214.04 C 308.80 217.60 307.99 221.33 307.88 224.98 C 308.43 254.06 312.15 282.98 313.05 312.05 C 313.38 325.05 313.21 338.05 313.38 351.04 C 313.72 420.04 315.13 489.16 309.88 558.03 C 307.83 578.60 297.42 599.51 278.94 609.91 C 269.38 614.33 258.29 614.22 248.21 611.78 C 237.03 609.02 226.88 603.12 218.00 595.91 C 206.50 587.14 196.16 575.47 193.05 560.97 C 188.10 535.62 189.00 509.60 190.75 483.97 C 191.14 478.77 190.92 472.90 194.75 468.82 C 203.33 459.37 221.72 459.68 228.52 471.01 C 233.12 489.64 231.36 509.02 231.77 528.02 C 232.04 535.73 230.94 544.04 234.97 551.03 C 240.61 561.17 251.03 567.35 261.01 572.58 C 269.07 552.77 270.29 531.13 270.69 510.01 C 270.72 495.00 271.75 480.02 271.73 465.01 C 272.07 453.67 271.62 442.33 272.12 430.99 C 271.63 405.34 271.88 379.67 270.98 354.02 C 269.74 308.28 267.28 262.57 263.57 216.97 C 262.91 210.80 267.09 205.12 272.18 202.11 Z" />
<path fill="#fefefeff" opacity="1.00" d=" M 516.41 311.59 C 521.04 309.90 526.36 309.93 530.79 312.21 C 538.15 315.85 542.96 323.51 544.46 331.43 C 550.19 415.48 550.44 500.01 542.93 583.97 C 542.29 594.42 542.94 605.50 538.10 615.14 C 533.83 623.55 522.48 626.36 514.11 622.87 C 509.60 621.08 505.99 616.85 505.58 611.93 C 500.54 545.29 508.54 478.57 506.57 411.88 C 505.42 383.27 502.83 354.70 503.31 326.05 C 504.07 319.08 509.92 313.57 516.41 311.59 Z" />
<path fill="#fefefeff" opacity="1.00" d=" M 604.55 356.94 C 612.00 355.89 620.24 355.12 627.10 358.85 C 633.91 364.75 634.90 374.52 634.86 383.00 C 634.62 390.32 635.72 397.92 633.11 404.95 C 631.89 408.25 630.39 411.60 627.93 414.18 C 620.37 417.31 611.47 418.42 603.71 415.32 C 601.02 414.44 599.92 411.60 598.71 409.33 C 593.45 398.32 594.05 385.84 593.01 373.99 C 592.16 366.61 597.04 358.47 604.55 356.94 Z" />
<path fill="#fefefeff" opacity="1.00" d=" M 356.53 394.56 C 358.30 389.91 362.77 385.78 368.03 386.39 C 372.42 387.47 377.15 383.66 381.08 386.99 C 390.02 394.65 391.11 407.31 392.00 418.28 C 393.64 443.14 393.83 468.08 395.15 492.96 C 396.22 514.13 396.75 535.63 402.73 556.13 C 405.23 564.46 408.67 572.60 413.84 579.64 C 421.64 561.10 423.46 540.82 424.83 520.97 C 427.68 486.43 426.41 451.75 425.07 417.17 C 424.74 413.83 424.01 410.45 424.66 407.09 C 425.92 399.65 430.13 393.20 433.48 386.56 C 441.29 388.92 449.79 387.58 457.43 390.61 C 461.80 392.27 464.99 396.21 466.16 400.69 C 468.31 408.59 467.27 416.86 468.11 424.92 C 468.50 451.94 468.80 478.96 468.11 505.97 C 467.42 522.00 467.05 538.09 465.06 554.03 C 462.25 574.14 455.46 594.00 443.51 610.56 C 440.62 614.55 437.71 618.91 433.04 621.00 C 425.11 624.72 415.75 624.94 407.43 622.40 C 391.86 617.80 378.58 606.49 370.78 592.34 C 365.51 580.31 361.97 567.58 359.29 554.74 C 351.03 514.03 353.42 472.28 353.44 431.02 C 353.97 418.88 351.84 406.14 356.53 394.56 Z" />
<path fill="#fefefeff" opacity="1.00" d=" M 599.83 448.87 C 605.26 444.87 612.50 444.39 618.93 445.68 C 625.18 447.12 631.37 452.04 631.72 458.86 C 634.33 488.18 633.24 517.65 633.41 547.04 C 633.63 560.34 633.64 573.63 633.25 586.93 C 632.76 600.48 630.14 614.55 622.00 625.74 C 614.38 624.39 605.86 623.63 600.00 618.00 C 596.39 614.61 596.21 609.44 595.54 604.88 C 592.52 585.06 593.87 564.97 594.74 545.04 C 595.59 530.38 595.52 515.69 595.21 501.02 C 594.61 486.66 593.91 472.28 594.52 457.92 C 594.47 454.19 596.99 451.01 599.83 448.87 Z" />
<path fill="#fefefeff" opacity="1.00" d=" M 130.90 658.08 C 157.39 653.42 184.43 655.39 211.12 656.82 C 235.04 658.63 259.04 658.10 283.01 658.56 C 305.67 658.89 328.34 658.61 350.99 659.15 C 429.99 659.31 508.99 659.35 587.99 659.77 C 661.00 659.40 733.94 655.78 806.95 655.50 C 814.27 655.24 821.55 656.18 828.83 656.75 C 838.26 657.76 848.59 660.41 854.56 668.41 C 857.11 671.27 856.80 675.44 856.04 678.94 C 854.78 684.58 850.12 688.74 845.08 691.12 C 838.50 694.36 831.11 695.15 823.89 695.51 C 745.14 702.78 665.96 701.31 587.01 704.28 C 505.96 706.50 424.96 701.81 343.94 700.80 C 277.07 700.51 209.93 701.35 143.45 692.91 C 134.54 691.64 126.28 687.86 118.30 683.88 C 119.21 677.77 119.20 671.40 121.51 665.60 C 123.03 661.65 126.66 658.61 130.90 658.08 Z" />
</g>
</svg>
